<svg xmlns="http://www.w3.org/2000/svg" viewBox="0 0 205.01 68"><defs><style>.cls-1{fill:#80bc00;}.cls-2{fill:#003b4d;}.cls-3{fill:#fff;}</style></defs><title>KCB_Logo</title><g id="Layer_2" data-name="Layer 2"><g id="Layer_1-2" data-name="Layer 1"><g id="KCB_Logo" data-name="KCB Logo"><polygon class="cls-1" points="0 0 157.94 0 205.01 68 0 68 0 0"/><path class="cls-2" d="M82.73,14.06c-.4-2.73-2.08-1.93-1.83-2.85.08-.29-.23-1.48-2-1.48H44.81V29.56a3,3,0,0,0,1.89-.36c1.07-1.28,2-3,3.75-3.32.51-.09,1.18-.15,1.53.26-.18.39-.7.34-1.06.47a5.49,5.49,0,0,0-3.07,2,.29.29,0,0,0,.06.33,1,1,0,0,0,.39-.06c.57-.41,1.12-1,1.88-.86a.2.2,0,0,1,.12.3,6.11,6.11,0,0,1-1.74,1.06c-.78.63-2.93,1.15-3.2,2.2a8.48,8.48,0,0,0,1.11.13c1,.07,1.27-1.11,2-1.62.3-.19.67-.45,1-.27,0,.17-.09.26-.12.39-.91.93-2,1.51-2.92,2.47-.27.3-1.46.64-1.64,1v3.68a13.1,13.1,0,0,1,3.93-3.48c.14,0,.37-.09.48.06s0,.51,0,.73c-.55,1-1.32,1.81-1.81,2.78a2.08,2.08,0,0,1,.29-1.23c0-.08.08-.22,0-.28-.41,0-.6.46-.74.74-.49,1.22-1.93,2.48-2.16,3.81V57.19H55.58a8.29,8.29,0,0,0,1.73-2c.49-.67.61-1.59,1.2-2.16.1,0,.17-.08.27,0a2.66,2.66,0,0,1-.21,2.19c-.17.43-.55.76-.57,1.26,0,.13.29.14.43,0,1.09-.9,1.27-2.41,1.6-3.77,0-.05,0-.19.16-.18s.08.45.05.66-.15.38-.1.56c.53.22.57-.56.8-.88.07,0,.17.06.19.15a2.2,2.2,0,0,1-.72,1.82c-.18.18-.64.28-.54.57s.43.18.64.13c.05,0,.09.06,0,.19a5.81,5.81,0,0,1-1.32,1.39h2a11.45,11.45,0,0,0,2.86-2.58l0,0,.13,0c.54-.77,1-1.55,1.57-2.33a3.84,3.84,0,0,0,.66-2.84c-.24-.59-.9-.35-1.38-.32a1.81,1.81,0,0,1-.68-.47c-.11-.16,0-.43-.23-.53-.48-.14-.87.3-1.21.64-.14.08-.32.22-.44.12,0-1,.87-1.55,1-2.44,0-.18-.16-.26-.3-.37-.66,0-1,.67-1.44,1l-.21,0a.67.67,0,0,1-.12-.54,3.6,3.6,0,0,1,.85-1.61C63.77,42.54,67,42.56,67,42.56c3.07,0,5.13,2,5.64,2a.59.59,0,0,0,.4-.66c0-.44-.21-.9-.5-.94s.21.38-.5.21c-2.71-.61-4.64-2.46-4.48-4.15s-.18-2.45,2.94-3.77c.47-.2,1.14-.24,1-1.43,0,0-.1-.36-.35-.36a.28.28,0,0,0-.3.26s.16.3-.26.3-.19-.48-1.24-.48a2.65,2.65,0,0,0-1.13.17,3,3,0,0,1-1.25.18,2.67,2.67,0,0,1-1.21-.21,3.3,3.3,0,0,0-1.2-.16c-1,0-.86.49-1.23.5-.21,0-.28-.16-.23-.4s.17-.24-.45-.69a.84.84,0,0,1-.21-1,5.06,5.06,0,0,0,.71-2c.12-.8-1.31-2.46-1.58-3-.46-.86,0-1.21-1.73-1.4a2.33,2.33,0,0,1-2.31-1.93c0-.1,0-.28.31-.14.58.32,1.06,1.44,2,1.44s2,.19,2.13.56c.41.84.86,1,1.09,1,.66.05-.2-1.43.05-1.7s.39-.13.61-.08a2.87,2.87,0,0,1,1.6.92c.08.13.56.06.63-.22.33-1.3.75-1.25,1.36-1.16s.63.1.63.79a.52.52,0,0,0,.71.56c.55-.13.84-1.26,1.44-1.3.15,0,.23,0,.27.13s-.47.59-.31.91.27-.15.46-.06c.44.23.17,1.21.6,1.18s.46-.42.75-.78a1.57,1.57,0,0,1,.89-.59,19.22,19.22,0,0,0,2.83-1c2-1.15.76-4.19-.9-6.13-.4-.48.2-.87.71-.36,1,1,1.47,2.45,2.23,2.45a7.8,7.8,0,0,0,3.66-1.51,5.54,5.54,0,0,0,1.47-4.5m-24,24.28c.7-1.29,3.4-3.41,4.83-3a3.71,3.71,0,0,1,2.79,3.38c.27,3-3.48,4.73-3.67,4.62s0-.26,0-.41a.18.18,0,0,0-.2-.15c-.82,0-.87,1.15-1.42,1.64-.16,0-.26-.13-.39-.21-.3-.47.48-.45.59-.82s.07-.56-.09-.68a.5.5,0,0,0-.61,0c-.31.22-.32.82-.72.65a.83.83,0,0,1-.17-.66c.41-.5,1.16-.41,1.24-1.17,0-.46.41-.41.65-.5s.27-.41.36-.66c.19-.55.71-.45.76-.75a.46.46,0,0,0-.2-.45.76.76,0,0,0-.63.18c-.14.1-.06.37-.26.48a2.72,2.72,0,0,1-.69.21c-.36.12-.37.48-.45.85,0,.19-.42.13-.58.17-.35.09-.44.47-.58.79,0,0,0,.08-.07.08s-.28-.15-.37-.25-.15-.22-.06-.32A.4.4,0,0,1,59,41.2a.49.49,0,0,0,.32-.56c-.12-.43.4-.58.41-.74a.38.38,0,0,0-.18-.38c-.32-.2-.57.18-.88.29-.09,0-.26-.11-.3-.24a2.69,2.69,0,0,1,.33-1.23m-2.92-27a6.16,6.16,0,0,1,3.71,2.44c.72,1.1,1,2.56,2.27,3.27a1.49,1.49,0,0,0,.59.36,2,2,0,0,1-.82-.24c-.12,0-.22-.19-.36-.08s0,.13-.05.2.2.16.29.26a2,2,0,0,0-.18.21c-1.34-.53-1.48-2-2.18-3.06a4.57,4.57,0,0,0-1.3-1.65.24.24,0,0,0-.24.14c.12.26.39.46.53.71A3.46,3.46,0,0,1,58.69,16c-.09.08,0,.22-.17.24a.4.4,0,0,1-.44-.24c-.7-.94-.72-2.22-1.68-3,0,0,0,0-.07,0-.32.27,0,.72,0,1.09v.26a4.91,4.91,0,0,0-2.18-2.41,4.46,4.46,0,0,0-3.67,1,.08.08,0,0,1-.13-.09c.06-.53,1.1-2.49,5.45-1.5m-.73,6.4a46.71,46.71,0,0,1-4.28-2.05c-.26-.06-.59-.19-.83,0s.22.32.33.49a3.66,3.66,0,0,0-2,.24c-.14,0-.31,0-.41-.07,0-.34.31-.65.53-.91a3.13,3.13,0,0,1,2.3-.83l0,0,0,0a4.91,4.91,0,0,1,2.59.83c1.23.74,2.24,1.88,3.39,2.72a6.53,6.53,0,0,1-1.73-.42m8.9,4c.12.62-.29,2-.53,2.05-.42,0-.44-.44-.54-1.05s.43-1.38-.13-1.58c-.79,0-.44,1.31-1.07,1.31-.34,0-.69-.36-1.12-.49-2.21-.61-3.1,1.22-3.52,1.13-.78-.17-.16-.66,0-.9a5.84,5.84,0,0,1,3.07-1.59c.9-.2,1.49-.77,2.78-.77,1.3.19,1,1.34,1.06,1.89m11.45-.26a.53.53,0,0,1,.3.61c-.06.31-.28.1-.53,0a2.62,2.62,0,0,0-2.58.22c-.55.33-.69-.25-.9-.66-.1-.16-.33-.47-.52-.37s-.09.65,0,.8a1.13,1.13,0,0,1-.46,1.13c-.32,0-.35-.16-.5-.43-.47-.81-.62-2.49.3-2.79a3.13,3.13,0,0,1,2.77.61,8.83,8.83,0,0,0,2.15.84m0-8.21a2.59,2.59,0,0,1,2.79-1.09,3.41,3.41,0,0,1,1.2.61c0,.28.37.29.41.56l0,0c-1.28-.47-3.08-.88-4.35-.12M79,15.89a6.37,6.37,0,0,1-1.65-.35c.77-.39,2.05-1.23,2.73-.14-.17.45-.68.42-1.08.49"/><polygon class="cls-3" points="99.9 44.81 94.71 44.81 87.41 34.34 87.41 44.81 83.13 44.81 83.13 22.4 87.41 22.4 87.41 31.88 95.22 22.4 99.25 22.4 91.29 32.28 99.9 44.81"/><path class="cls-3" d="M111.23,45.16c-7.11,0-11-4.13-11-11.62,0-3.64.85-6.5,2.54-8.49a9,9,0,0,1,7.1-3,51,51,0,0,1,5.69.72l.67.12v4.17l-3.38-2a6.76,6.76,0,0,0-3-.73h-.07c-4.27,0-4.9,5-5,9.31-.06,3.64.7,6.36,2.18,7.87a5.21,5.21,0,0,0,3.86,1.47,7.73,7.73,0,0,0,4.48-1.37l1.57-1.1-.6,3.72-.38.19a13.76,13.76,0,0,1-4.72.79"/><path class="cls-3" d="M128.3,44.81h-7.76V22.4h7.15a8.58,8.58,0,0,1,4.72,1,4.85,4.85,0,0,1,2.11,4.45,5.16,5.16,0,0,1-1.36,3.76l-.56.56.63.48a6.53,6.53,0,0,1,2.29,5.46,6.22,6.22,0,0,1-2.28,5,7.77,7.77,0,0,1-4.94,1.64m-3.48-2.26h2.1c3.29,0,4.29-1.07,4.29-4.58a3.39,3.39,0,0,0-3.68-3.46h-2.71Zm0-11.47H127a4.06,4.06,0,0,0,2-.45A2.84,2.84,0,0,0,130.12,28c0-3.1-1.67-3.35-3.53-3.35h-1.77Z"/></g></g></g></svg>